<svg height="200" viewBox="0 0 1024 1024" width="200" xmlns="http://www.w3.org/2000/svg"><path d="m508.312516 87.573521c-230.610238 0-418.21194 189.43956-418.21194 422.264233 0 232.82365 187.601702 422.262186 418.21194 422.262186 230.593865 0 418.212964-189.438537 418.212964-422.262186 0-232.824673-187.619099-422.264233-418.212964-422.264233zm0 812.359812c-86.142939 0-165.782767-28.653597-230.076072-77.032444 15.063067-5.842055 34.825157-13.008268 53.140291-19.542078 47.39238-17.089214 77.017094-27.961842 88.686878-35.373649 29.516244-18.786878 25.353434-90.351797 23.37436-111.843274l-.596588-6.344498-16.022928-14.137998c-1.415232-12.81691-5.073552-38.324864-12.58155-50.828642-10.101055-16.778128-25.352411-61.420885-30.379914-77.221756l-1.711991-4.869914-3.925403-3.047406c-.378623-.315178-9.565866-7.603165-9.565866-19.415189 0-11.812023 9.188266-19.132756 9.4093-19.290345l8.401344-6.220678-2.229784-10.177803c-.10847-.565888-12.094456-55.858192-12.094456-93.337805 0-98.237395 90.777493-112.940259 144.892995-112.940259 58.732659 0 128.757502 19.602454 128.757502 112.940259 0 38.327934-5.811356 94.53098-5.873778 95.096868l-.754177 9.017374 7.036253 5.497201c.407276.282433 9.582239 7.603165 9.582239 19.415189 0 11.812023-9.174963 19.10001-9.392928 19.289322l-4.178159 3.047406-1.601474 4.932336c-.156566.503467-16.180518 49.638537-30.883381 78.163197-6.503111 12.504802-10.369162 37.386492-11.968589 49.826825l-16.148795 14.262842-.596588 6.344498c-1.981121 21.491477-6.189979 93.056396 23.342638 111.843274 11.93789 7.601118 42.097794 17.089214 90.351797 31.856545 17.908882 5.528923 37.230949 11.434423 52.182476 16.460904-65.724909 52.335971-148.599408 83.629698-238.575652 83.629698zm266.188548-107.820657c-14.513552-5.77861-37.82549-13.006222-70.372767-22.997784-32.702819-9.990538-73.388451-22.491247-82.498946-28.274974-7.351432-4.774747-11.497868-40.401152-9.078773-75.462692l15.739473-13.94971.691755-6.155187c1.541099-14.135952 5.434779-37.323047 9.298783-44.7369 13.44829-26.074865 27.14422-65.754586 31.510668-78.791507 6.661723-6.40999 18.158568-20.48352 18.158568-41.469484 0-18.22099-8.638751-31.228235-15.269775-38.516222 1.636267-17.216103 5.279237-58.873876 5.279237-90.51041 0-92.206028-58.652841-145.110959-160.928203-145.110959-112.534006 0-177.062672 52.90493-177.062672 145.110959 0 31.888268 7.461949 73.420173 11.027148 91.357707-6.51846 7.446599-14.513552 20.138666-14.513552 37.668924 0 20.955264 11.466146 35.027771 18.110473 41.406039 4.681626 14.262842 20.011776 59.690474 32.076556 79.734996 3.485381 5.844102 7.334036 27.205619 8.749268 43.479257l.549515 6.407943 15.929808 14.07353c2.387373 35.06154-1.744737 70.625524-9.081843 75.462692-9.503445 6.033413-49.8872 20.545942-82.33931 32.234145-32.642444 11.749602-56.032154 20.231787-70.310346 26.578332-78.493725-71.503521-127.894855-174.924985-127.894855-289.813618 0-215.107149 173.180248-390.094556 386.04124-390.094556 212.875319 0 386.042263 174.987407 386.042263 390.094556.000002 110.929463-46.056963 211.147979-119.853713 282.274923z"/></svg>