<svg height="200" viewBox="0 0 1024 1024" width="200" xmlns="http://www.w3.org/2000/svg"><path d="m224 322.6h576c16.6 0 30-13.4 30-30s-13.4-30-30-30h-576c-16.6 0-30 13.4-30 30 0 16.5 13.5 30 30 30zm66.1-144.2h443.8c16.6 0 30-13.4 30-30s-13.4-30-30-30h-443.8c-16.6 0-30 13.4-30 30s13.4 30 30 30zm339.5 435.5h-235.2c-16.6 0-30 13.4-30 30s13.4 30 30 30h235.2c16.6 0 30-13.4 30-30s-13.4-30-30-30z"/><path d="m850.3 403.9h-676.6c-33 0-60 27-60 60v360c0 33 27 60 60 60h676.6c33 0 60-27 60-60v-360c0-33-27-60-60-60zm-.1 419.8-.1.1h-676.2l-.1-.1v-359.7l.1-.1h676.2l.1.1z"/></svg>