<svg height="200" viewBox="0 0 1024 1024" width="200" xmlns="http://www.w3.org/2000/svg"><g fill="#e75934"><path d="m831.697 424.131c-39.6-47.569-92.335-85.335-153.756-110.382l110.237-211.018a26.562 26.562 0 0 0 -36.148-35.681l-148.28 79.939-91.886-76.925c-9.868-8.261-24.236-8.261-34.103 0l-95.084 79.603-150.773-40.641a26.563 26.563 0 0 0 -29.615 39.437l105.719 174.038c-56.189 26.32-104.154 63.66-139.922 109.197-43.577 55.478-66.611 120.176-66.611 187.1 0 46.369 10.882 91.305 32.342 133.558 20.528 40.418 49.81 76.628 87.032 107.626 75.575 62.938 175.761 97.599 282.102 97.599s206.527-34.661 282.102-97.599c37.223-30.998 66.505-67.208 87.032-107.626 21.46-42.254 32.342-87.189 32.342-133.558.001-70.194-25.149-137.51-72.73-194.667zm-328.746 480.327c-192.081 0-348.352-128.146-348.352-285.659 0-108.289 75.905-208.061 194.074-256.112a26.428 26.428 0 0 0 12.502-3.822c12.301-7.472 16.346-23.331 9.303-35.768a26.407 26.407 0 0 0 -1.879-3.173l-86.461-142.335 100.069 26.974a26.564 26.564 0 0 0 23.964-5.28l88.641-74.208 88.641 74.208a26.564 26.564 0 0 0 29.656 3.014l87.864-47.367-84.108 161c-.103.197-.178.4-.275.598-.229.468-.452.94-.655 1.426a25.77 25.77 0 0 0 -.472 1.226c-.093.257-.208.501-.294.763-.052.157-.081.315-.129.472a26.39 26.39 0 0 0 -.384 1.406c-.099.395-.197.79-.277 1.186-.091.453-.161.906-.228 1.361-.063.429-.127.857-.169 1.285-.039.407-.06.813-.08 1.219-.024.475-.047.949-.046 1.422.001.36.02.718.036 1.077.022.51.047 1.018.098 1.523.034.332.085.66.131.989.072.518.148 1.034.25 1.545.066.33.15.654.228.98.119.495.239.988.386 1.474.105.35.23.692.349 1.037.155.448.31.894.489 1.332.153.376.327.743.497 1.112.181.392.36.785.56 1.168.205.392.43.772.655 1.154.204.346.403.694.623 1.031.249.384.519.754.789 1.126.233.321.463.642.71.953.279.35.576.685.874 1.022.278.315.554.629.848.931.29.298.595.581.9.866.34.318.68.634 1.038.934.288.241.588.47.887.7.407.314.818.622 1.246.914.291.198.592.383.893.571.455.284.915.561 1.391.819.128.07.244.152.374.22.217.113.441.196.659.303.435.212.872.418 1.322.608.445.188.893.355 1.343.517.232.083.451.187.686.264 133.148 43.718 219.184 147.867 219.184 265.334.001 157.514-156.269 285.66-348.351 285.66z"/><path d="m622.1 624.223c14.67 0 26.563-11.892 26.563-26.563s-11.892-26.563-26.563-26.563h-68.91l54.861-63.802c9.564-11.124 8.301-27.895-2.824-37.459-11.12-9.564-27.892-8.302-37.459 2.822l-54.253 63.096-52.296-62.779c-9.388-11.272-26.139-12.797-37.41-3.408-11.272 9.389-12.797 26.138-3.408 37.41l53.411 64.119h-68.198c-14.67 0-26.563 11.892-26.563 26.563s11.892 26.563 26.563 26.563h81.016v23.906h-81.016c-14.67 0-26.563 11.892-26.563 26.563 0 14.67 11.892 26.563 26.563 26.563h81.016v26.563c0 14.67 11.892 26.563 26.563 26.563s26.563-11.892 26.563-26.563v-26.563h82.344c14.67 0 26.563-11.892 26.563-26.563 0-14.67-11.892-26.563-26.563-26.563h-82.344v-23.906h82.344z"/></g></svg>