<svg height="200" viewBox="0 0 1024 1024" width="200" xmlns="http://www.w3.org/2000/svg"><path d="m876.613818 861.090909a11.636364 11.636364 0 0 0 11.636364-11.636364v-674.90909a11.636364 11.636364 0 0 0 -11.636364-11.636364h-721.454545a11.636364 11.636364 0 0 0 -11.636364 11.636364v674.90909a11.636364 11.636364 0 0 0 11.636364 11.636364zm0 69.818182h-721.454545a81.454545 81.454545 0 0 1 -81.454546-81.454546v-674.90909a81.454545 81.454545 0 0 1 81.454546-81.454546h721.454545a81.454545 81.454545 0 0 1 81.454546 81.454546v674.90909a81.454545 81.454545 0 0 1 -81.454546 81.454546z"/><path d="m129.256727 700.206545-47.197091-51.432727 182.574546-167.493818a81.454545 81.454545 0 0 1 113.314909 3.072l158.673454 162.327273a11.636364 11.636364 0 0 0 15.965091.651636l94.138182-81.803636a81.454545 81.454545 0 0 1 107.822546.861091l191.627636 171.962181-46.615273 51.968-191.650909-171.985454a11.636364 11.636364 0 0 0 -15.383273-.116364l-94.138181 81.803637a81.454545 81.454545 0 0 1 -111.685819-4.538182l-158.696727-162.327273a11.636364 11.636364 0 0 0 -16.174545-.442182l-182.574546 167.493818z"/><path d="m628.363636 337.454545a58.181818 58.181818 0 1 0 116.363637 0 58.181818 58.181818 0 1 0 -116.363637 0z"/></svg>